RobotoAvar2-YTFI560.ufo
<glyph name="numbersign" format="2">
  <advance width="1544"/>
  <unicode hex="0023"/>
  <outline>
    <contour>
      <point x="216" y="-20" type="line"/>
      <point x="652" y="532" type="line"/>
      <point x="796" y="532" type="line"/>
      <point x="360" y="-20" type="line"/>
    </contour>
    <contour>
      <point x="722" y="-20" type="line"/>
      <point x="1158" y="532" type="line"/>
      <point x="1302" y="532" type="line"/>
      <point x="866" y="-20" type="line"/>
    </contour>
    <contour>
      <point x="64" y="106" type="line"/>
      <point x="64" y="217" type="line"/>
      <point x="1405" y="217" type="line"/>
      <point x="1405" y="106" type="line"/>
    </contour>
    <contour>
      <point x="115" y="303" type="line"/>
      <point x="115" y="414" type="line"/>
      <point x="1455" y="414" type="line"/>
      <point x="1455" y="303" type="line"/>
    </contour>
  </outline>
</glyph>
<glyph name="two" format="2">
  <advance width="1156"/>
  <unicode hex="0032"/>
  <outline>
    <contour>
      <point x="110" y="0" type="line"/>
      <point x="110" y="140" type="line"/>
      <point x="630" y="460" type="line" smooth="yes"/>
      <point x="757" y="538"/>
      <point x="840" y="651"/>
      <point x="840" y="750" type="qcurve" smooth="yes"/>
      <point x="840" y="850"/>
      <point x="705" y="952"/>
      <point x="585" y="952" type="qcurve" smooth="yes"/>
      <point x="465" y="952"/>
      <point x="300" y="861"/>
      <point x="300" y="721" type="qcurve" smooth="yes"/>
      <point x="300" y="711" type="line"/>
      <point x="110" y="711" type="line"/>
      <point x="110" y="721" type="line" smooth="yes"/>
      <point x="110" y="921"/>
      <point x="383" y="1110"/>
      <point x="585" y="1110" type="qcurve" smooth="yes"/>
      <point x="785" y="1110"/>
      <point x="1030" y="920"/>
      <point x="1030" y="760" type="qcurve" smooth="yes"/>
      <point x="1030" y="619"/>
      <point x="900" y="436"/>
      <point x="755" y="355" type="qcurve" smooth="yes"/>
      <point x="418" y="166" type="line"/>
      <point x="1070" y="166" type="line"/>
      <point x="1070" y="0" type="line"/>
    </contour>
  </outline>
</glyph>
<glyph name="three" format="2">
  <advance width="1156"/>
  <unicode hex="0033"/>
  <outline>
    <contour>
      <point x="80" y="360" type="qcurve" smooth="yes"/>
      <point x="80" y="370" type="line"/>
      <point x="266" y="370" type="line"/>
      <point x="266" y="360" type="line" smooth="yes"/>
      <point x="266" y="248"/>
      <point x="417" y="128"/>
      <point x="558" y="128" type="qcurve" smooth="yes"/>
      <point x="698" y="128"/>
      <point x="848" y="233"/>
      <point x="848" y="330" type="qcurve" smooth="yes"/>
      <point x="848" y="426"/>
      <point x="693" y="512"/>
      <point x="520" y="512" type="qcurve" smooth="yes"/>
      <point x="405" y="512" type="line"/>
      <point x="405" y="666" type="line"/>
      <point x="510" y="666" type="line" smooth="yes"/>
      <point x="662" y="666"/>
      <point x="798" y="742"/>
      <point x="798" y="826" type="qcurve" smooth="yes"/>
      <point x="798" y="888"/>
      <point x="674" y="952"/>
      <point x="558" y="952" type="qcurve" smooth="yes"/>
      <point x="437" y="952"/>
      <point x="306" y="885"/>
      <point x="306" y="820" type="qcurve" smooth="yes"/>
      <point x="306" y="810" type="line"/>
      <point x="120" y="810" type="line"/>
      <point x="120" y="820" type="line" smooth="yes"/>
      <point x="120" y="961"/>
      <point x="347" y="1110"/>
      <point x="558" y="1110" type="qcurve" smooth="yes"/>
      <point x="766" y="1110"/>
      <point x="990" y="969"/>
      <point x="990" y="836" type="qcurve" smooth="yes"/>
      <point x="990" y="739"/>
      <point x="881" y="622"/>
      <point x="764" y="598" type="qcurve"/>
      <point x="764" y="594" type="line"/>
      <point x="907" y="578"/>
      <point x="1042" y="439"/>
      <point x="1042" y="331" type="qcurve" smooth="yes"/>
      <point x="1042" y="157"/>
      <point x="791" y="-30"/>
      <point x="558" y="-30" type="qcurve" smooth="yes"/>
      <point x="328" y="-30"/>
      <point x="80" y="172"/>
    </contour>
  </outline>
</glyph>
<glyph name="four" format="2">
  <advance width="1156"/>
  <unicode hex="0034"/>
  <outline>
    <contour>
      <point x="724" y="0" type="line"/>
      <point x="724" y="348" type="line"/>
      <point x="724" y="400" type="line"/>
      <point x="724" y="853" type="line"/>
      <point x="712" y="853" type="line"/>
      <point x="299" y="450" type="line"/>
      <point x="775" y="450" type="line"/>
      <point x="852" y="450" type="line"/>
      <point x="1108" y="450" type="line"/>
      <point x="1108" y="292" type="line"/>
      <point x="50" y="292" type="line"/>
      <point x="50" y="418" type="line"/>
      <point x="732" y="1090" type="line"/>
      <point x="904" y="1090" type="line"/>
      <point x="904" y="0" type="line"/>
    </contour>
  </outline>
</glyph>
<glyph name="six" format="2">
  <advance width="1156"/>
  <unicode hex="0036"/>
  <outline>
    <contour>
      <point x="88" y="217" type="qcurve" smooth="yes"/>
      <point x="88" y="232" type="line" smooth="yes"/>
      <point x="88" y="370"/>
      <point x="498" y="530"/>
      <point x="880" y="540" type="qcurve" smooth="yes"/>
      <point x="900" y="540" type="line"/>
      <point x="900" y="382" type="line"/>
      <point x="880" y="382" type="line" smooth="yes"/>
      <point x="589" y="382"/>
      <point x="276" y="307"/>
      <point x="276" y="237" type="qcurve" smooth="yes"/>
      <point x="276" y="212" type="line" smooth="yes"/>
      <point x="276" y="172"/>
      <point x="444" y="129"/>
      <point x="600" y="129" type="qcurve" smooth="yes"/>
      <point x="742" y="129"/>
      <point x="894" y="145"/>
      <point x="894" y="160" type="qcurve" smooth="yes"/>
      <point x="894" y="176"/>
      <point x="742" y="194"/>
      <point x="600" y="194" type="qcurve" smooth="yes"/>
      <point x="441" y="194"/>
      <point x="270" y="167"/>
      <point x="270" y="142" type="qcurve"/>
      <point x="200" y="142" type="line"/>
      <point x="200" y="229"/>
      <point x="428" y="323"/>
      <point x="640" y="323" type="qcurve" smooth="yes"/>
      <point x="854" y="323"/>
      <point x="1084" y="239"/>
      <point x="1084" y="160" type="qcurve" smooth="yes"/>
      <point x="1084" y="68"/>
      <point x="833" y="-30"/>
      <point x="600" y="-30" type="qcurve" smooth="yes"/>
      <point x="353" y="-30"/>
      <point x="88" y="98"/>
    </contour>
  </outline>
</glyph>
<glyph name="eight" format="2">
  <advance width="1156"/>
  <unicode hex="0038"/>
  <outline>
    <contour>
      <point x="73" y="127" type="qcurve" smooth="yes"/>
      <point x="73" y="173"/>
      <point x="205" y="242"/>
      <point x="327" y="261" type="qcurve"/>
      <point x="327" y="262" type="line"/>
      <point x="227" y="280"/>
      <point x="119" y="346"/>
      <point x="119" y="390" type="qcurve" smooth="yes"/>
      <point x="119" y="462"/>
      <point x="341" y="540"/>
      <point x="547" y="540" type="qcurve" smooth="yes"/>
      <point x="753" y="540"/>
      <point x="974" y="462"/>
      <point x="974" y="390" type="qcurve" smooth="yes"/>
      <point x="974" y="343"/>
      <point x="866" y="277"/>
      <point x="766" y="262" type="qcurve"/>
      <point x="766" y="261" type="line"/>
      <point x="888" y="242"/>
      <point x="1020" y="173"/>
      <point x="1020" y="127" type="qcurve" smooth="yes"/>
      <point x="1020" y="51"/>
      <point x="775" y="-30"/>
      <point x="547" y="-30" type="qcurve" smooth="yes"/>
      <point x="319" y="-30"/>
      <point x="73" y="51"/>
    </contour>
    <contour>
      <point x="261" y="166" type="qcurve"/>
      <point x="261" y="148"/>
      <point x="409" y="128"/>
      <point x="547" y="128" type="qcurve" smooth="yes"/>
      <point x="684" y="128"/>
      <point x="832" y="148"/>
      <point x="832" y="166" type="qcurve"/>
      <point x="832" y="181"/>
      <point x="684" y="198"/>
      <point x="547" y="198" type="qcurve" smooth="yes"/>
      <point x="409" y="198"/>
      <point x="261" y="181"/>
    </contour>
    <contour>
      <point x="303" y="345" type="qcurve"/>
      <point x="303" y="332"/>
      <point x="429" y="317"/>
      <point x="547" y="317" type="qcurve" smooth="yes"/>
      <point x="664" y="317"/>
      <point x="790" y="332"/>
      <point x="790" y="345" type="qcurve"/>
      <point x="790" y="363"/>
      <point x="664" y="382"/>
      <point x="547" y="382" type="qcurve" smooth="yes"/>
      <point x="429" y="382"/>
      <point x="303" y="363"/>
    </contour>
  </outline>
</glyph>
<glyph name="nine" format="2">
  <advance width="1156"/>
  <unicode hex="0039"/>
  <outline>
    <contour>
      <point x="72" y="730" type="qcurve" smooth="yes"/>
      <point x="72" y="913"/>
      <point x="323" y="1110"/>
      <point x="556" y="1110" type="qcurve" smooth="yes"/>
      <point x="803" y="1110"/>
      <point x="1068" y="854"/>
      <point x="1068" y="616" type="qcurve" smooth="yes"/>
      <point x="1068" y="586" type="line" smooth="yes"/>
      <point x="1068" y="308"/>
      <point x="658" y="-11"/>
      <point x="276" y="-30" type="qcurve" smooth="yes"/>
      <point x="256" y="-30" type="line"/>
      <point x="256" y="128" type="line"/>
      <point x="276" y="128" type="line" smooth="yes"/>
      <point x="567" y="128"/>
      <point x="880" y="360"/>
      <point x="880" y="576" type="qcurve" smooth="yes"/>
      <point x="880" y="626" type="line" smooth="yes"/>
      <point x="880" y="783"/>
      <point x="712" y="952"/>
      <point x="556" y="952" type="qcurve" smooth="yes"/>
      <point x="414" y="952"/>
      <point x="262" y="837"/>
      <point x="262" y="730" type="qcurve" smooth="yes"/>
      <point x="262" y="630"/>
      <point x="414" y="522"/>
      <point x="556" y="522" type="qcurve" smooth="yes"/>
      <point x="715" y="522"/>
      <point x="886" y="648"/>
      <point x="886" y="766" type="qcurve"/>
      <point x="956" y="766" type="line"/>
      <point x="956" y="572"/>
      <point x="728" y="364"/>
      <point x="516" y="364" type="qcurve" smooth="yes"/>
      <point x="302" y="364"/>
      <point x="72" y="554"/>
    </contour>
  </outline>
</glyph>
<glyph name="yen" format="2">
  <advance width="1024"/>
  <unicode hex="00A5"/>
  <outline>
    <contour>
      <point x="43" y="111" type="line"/>
      <point x="43" y="270" type="line"/>
      <point x="989" y="270" type="line"/>
      <point x="989" y="111" type="line"/>
    </contour>
    <contour>
      <point x="43" y="381" type="line"/>
      <point x="43" y="535" type="line"/>
      <point x="409" y="535" type="line"/>
      <point x="462" y="429" type="line"/>
      <point x="571" y="429" type="line"/>
      <point x="619" y="535" type="line"/>
      <point x="989" y="535" type="line"/>
      <point x="989" y="381" type="line"/>
    </contour>
    <contour>
      <point x="420" y="0" type="line"/>
      <point x="420" y="308" type="line"/>
      <point x="-35" y="1076" type="line"/>
      <point x="174" y="1076" type="line"/>
      <point x="450" y="589" type="line" smooth="yes"/>
      <point x="467" y="560"/>
      <point x="491" y="519"/>
      <point x="504" y="469" type="qcurve"/>
      <point x="524" y="469" type="line"/>
      <point x="540" y="521"/>
      <point x="561" y="560"/>
      <point x="578" y="589" type="qcurve" smooth="yes"/>
      <point x="858" y="1076" type="line"/>
      <point x="1059" y="1076" type="line"/>
      <point x="604" y="308" type="line"/>
      <point x="604" y="0" type="line"/>
    </contour>
  </outline>
</glyph>
<glyph name="franc" format="2">
  <advance width="1024"/>
  <unicode hex="20A3"/>
  <outline>
    <contour>
      <point x="180" y="0" type="line"/>
      <point x="180" y="530" type="line"/>
      <point x="1002" y="530" type="line"/>
      <point x="1002" y="378" type="line"/>
      <point x="372" y="378" type="line"/>
      <point x="372" y="0" type="line"/>
    </contour>
    <contour>
      <point x="20" y="56" type="line"/>
      <point x="20" y="146" type="line"/>
      <point x="725" y="146" type="line"/>
      <point x="725" y="56" type="line"/>
    </contour>
    <contour>
      <point x="282" y="177" type="line"/>
      <point x="282" y="328" type="line"/>
      <point x="913" y="328" type="line"/>
      <point x="913" y="177" type="line"/>
    </contour>
  </outline>
</glyph>
<glyph name="lira" format="2">
  <advance width="1024"/>
  <unicode hex="20A4"/>
  <outline>
    <contour>
      <point x="1028" y="0" type="line"/>
      <point x="36" y="0" type="line"/>
      <point x="36" y="137" type="line"/>
      <point x="92" y="137" type="line" smooth="yes"/>
      <point x="180" y="137"/>
      <point x="266" y="178"/>
      <point x="257" y="216" type="qcurve" smooth="yes"/>
      <point x="232" y="328" type="line" smooth="yes"/>
      <point x="210" y="430"/>
      <point x="410" y="540"/>
      <point x="618" y="540" type="qcurve" smooth="yes"/>
      <point x="802" y="540"/>
      <point x="1010" y="446"/>
      <point x="1021" y="359" type="qcurve" smooth="yes"/>
      <point x="1021" y="352" type="line"/>
      <point x="829" y="352" type="line"/>
      <point x="829" y="359" type="line" smooth="yes"/>
      <point x="829" y="383"/>
      <point x="721" y="409"/>
      <point x="620" y="409" type="qcurve" smooth="yes"/>
      <point x="515" y="409"/>
      <point x="411" y="367"/>
      <point x="420" y="328" type="qcurve" smooth="yes"/>
      <point x="441" y="236" type="line" smooth="yes"/>
      <point x="447" y="208"/>
      <point x="385" y="158"/>
      <point x="322" y="140" type="qcurve"/>
      <point x="1028" y="140" type="line"/>
    </contour>
    <contour>
      <point x="804" y="162" type="line"/>
      <point x="42" y="162" type="line"/>
      <point x="42" y="252" type="line"/>
      <point x="804" y="252" type="line"/>
    </contour>
    <contour>
      <point x="804" y="275" type="line"/>
      <point x="42" y="275" type="line"/>
      <point x="42" y="365" type="line"/>
      <point x="804" y="365" type="line"/>
    </contour>
  </outline>
</glyph>
<glyph name="peseta" format="2">
  <advance width="1681"/>
  <unicode hex="20A7"/>
  <outline>
    <contour>
      <point x="565" y="105" type="qcurve" smooth="yes"/>
      <point x="311" y="105" type="line"/>
      <point x="311" y="250" type="line"/>
      <point x="565" y="250" type="line" smooth="yes"/>
      <point x="701" y="250"/>
      <point x="822" y="285"/>
      <point x="822" y="323" type="qcurve" smooth="yes"/>
      <point x="822" y="353"/>
      <point x="701" y="379"/>
      <point x="565" y="378" type="qcurve" smooth="yes"/>
      <point x="352" y="378" type="line"/>
      <point x="352" y="-10" type="line"/>
      <point x="167" y="-10" type="line"/>
      <point x="167" y="530" type="line"/>
      <point x="565" y="530" type="line" smooth="yes"/>
      <point x="799" y="530"/>
      <point x="1008" y="433"/>
      <point x="1008" y="326" type="qcurve" smooth="yes"/>
      <point x="1008" y="211"/>
      <point x="799" y="106"/>
    </contour>
    <contour>
      <point x="1554" y="409" type="line"/>
      <point x="1554" y="288" type="line"/>
      <point x="950" y="288" type="line"/>
      <point x="950" y="409" type="line"/>
    </contour>
    <contour>
      <point x="1147" y="529" type="line"/>
      <point x="1332" y="529" type="line"/>
      <point x="1332" y="128" type="line" smooth="yes"/>
      <point x="1332" y="114"/>
      <point x="1388" y="101"/>
      <point x="1451" y="101" type="qcurve" smooth="yes"/>
      <point x="1492" y="101"/>
      <point x="1564" y="107"/>
      <point x="1603" y="113" type="qcurve"/>
      <point x="1603" y="-3" type="line"/>
      <point x="1559" y="-12"/>
      <point x="1462" y="-20"/>
      <point x="1397" y="-20" type="qcurve" smooth="yes"/>
      <point x="1265" y="-20"/>
      <point x="1147" y="50"/>
      <point x="1147" y="128" type="qcurve" smooth="yes"/>
    </contour>
  </outline>
</glyph>
<glyph name="dong" format="2">
  <advance width="1024"/>
  <unicode hex="20AB"/>
  <outline>
    <contour>
      <point x="15" y="343" type="qcurve" smooth="yes"/>
      <point x="15" y="352" type="line" smooth="yes"/>
      <point x="15" y="513"/>
      <point x="235" y="715"/>
      <point x="415" y="715" type="qcurve" smooth="yes"/>
      <point x="525" y="715"/>
      <point x="669" y="666"/>
      <point x="716" y="625" type="qcurve"/>
      <point x="716" y="1052" type="line"/>
      <point x="892" y="1052" type="line"/>
      <point x="892" y="0" type="line"/>
      <point x="734" y="0" type="line"/>
      <point x="726" y="137" type="line"/>
      <point x="720" y="94" type="line"/>
      <point x="680" y="47"/>
      <point x="525" y="-20"/>
      <point x="434" y="-20" type="qcurve" smooth="yes"/>
      <point x="235" y="-20"/>
      <point x="15" y="177"/>
    </contour>
    <contour>
      <point x="205" y="342" type="line" smooth="yes"/>
      <point x="205" y="239"/>
      <point x="325" y="132"/>
      <point x="445" y="132" type="qcurve" smooth="yes"/>
      <point x="555" y="132"/>
      <point x="685" y="198"/>
      <point x="716" y="240" type="qcurve"/>
      <point x="716" y="462" type="line"/>
      <point x="685" y="504"/>
      <point x="555" y="559"/>
      <point x="455" y="559" type="qcurve" smooth="yes"/>
      <point x="325" y="559"/>
      <point x="205" y="457"/>
      <point x="205" y="349" type="qcurve" smooth="yes"/>
    </contour>
    <contour>
      <point x="1021" y="792" type="line"/>
      <point x="305" y="792" type="line"/>
      <point x="305" y="938" type="line"/>
      <point x="1021" y="938" type="line"/>
    </contour>
    <contour>
      <point x="971" y="-266" type="line"/>
      <point x="47" y="-266" type="line"/>
      <point x="47" y="-128" type="line"/>
      <point x="971" y="-128" type="line"/>
    </contour>
  </outline>
</glyph>
<glyph name="uni20B1" format="2">
  <advance width="1024"/>
  <unicode hex="20B1"/>
  <outline>
    <contour>
      <point x="465" y="73" type="qcurve" smooth="yes"/>
      <point x="208" y="73" type="line"/>
      <point x="208" y="210" type="line"/>
      <point x="463" y="210" type="line" smooth="yes"/>
      <point x="603" y="210"/>
      <point x="729" y="252"/>
      <point x="729" y="298" type="qcurve" smooth="yes"/>
      <point x="729" y="349"/>
      <point x="603" y="394"/>
      <point x="463" y="394" type="qcurve" smooth="yes"/>
      <point x="298" y="394" type="line"/>
      <point x="298" y="0" type="line"/>
      <point x="110" y="0" type="line"/>
      <point x="110" y="530" type="line"/>
      <point x="466" y="530" type="line" smooth="yes"/>
      <point x="703" y="530"/>
      <point x="915" y="420"/>
      <point x="915" y="298" type="qcurve" smooth="yes"/>
      <point x="915" y="179"/>
      <point x="702" y="73"/>
    </contour>
    <contour>
      <point x="506" y="379" type="line"/>
      <point x="820" y="379" type="line"/>
      <point x="820" y="392" type="line"/>
      <point x="1019" y="393" type="line"/>
      <point x="1019" y="314" type="line"/>
      <point x="840" y="313" type="line"/>
      <point x="840" y="320" type="line"/>
      <point x="506" y="320" type="line"/>
    </contour>
    <contour>
      <point x="-1" y="313" type="line"/>
      <point x="-1" y="392" type="line"/>
      <point x="201" y="392" type="line"/>
      <point x="201" y="379" type="line"/>
      <point x="506" y="379" type="line"/>
      <point x="506" y="320" type="line"/>
      <point x="201" y="320" type="line"/>
      <point x="201" y="313" type="line"/>
    </contour>
    <contour>
      <point x="506" y="284" type="line"/>
      <point x="840" y="284" type="line"/>
      <point x="840" y="292" type="line"/>
      <point x="1019" y="293" type="line"/>
      <point x="1019" y="214" type="line"/>
      <point x="800" y="213" type="line"/>
      <point x="800" y="225" type="line"/>
      <point x="506" y="225" type="line"/>
    </contour>
    <contour>
      <point x="-1" y="213" type="line"/>
      <point x="-1" y="292" type="line"/>
      <point x="201" y="292" type="line"/>
      <point x="201" y="284" type="line"/>
      <point x="506" y="284" type="line"/>
      <point x="506" y="225" type="line"/>
      <point x="201" y="225" type="line"/>
      <point x="201" y="213" type="line"/>
    </contour>
  </outline>
</glyph>
<glyph name="hryvnia" format="2">
  <advance width="1024"/>
  <unicode hex="20B4"/>
  <outline>
    <contour>
      <point x="78" y="274" type="qcurve" smooth="yes"/>
      <point x="78" y="406"/>
      <point x="208" y="500"/>
      <point x="382" y="546" type="qcurve" smooth="yes"/>
      <point x="560" y="593" type="line" smooth="yes"/>
      <point x="689" y="627"/>
      <point x="776" y="718"/>
      <point x="776" y="810" type="qcurve" smooth="yes"/>
      <point x="776" y="878"/>
      <point x="652" y="952"/>
      <point x="536" y="952" type="qcurve" smooth="yes"/>
      <point x="407" y="952"/>
      <point x="286" y="854"/>
      <point x="281" y="796" type="qcurve" smooth="yes"/>
      <point x="279" y="770" type="line"/>
      <point x="107" y="770" type="line"/>
      <point x="108" y="796" type="line" smooth="yes"/>
      <point x="114" y="949"/>
      <point x="343" y="1110"/>
      <point x="539" y="1110" type="qcurve" smooth="yes"/>
      <point x="737" y="1110"/>
      <point x="949" y="949"/>
      <point x="949" y="800" type="qcurve" smooth="yes"/>
      <point x="949" y="674"/>
      <point x="819" y="570"/>
      <point x="637" y="521" type="qcurve" smooth="yes"/>
      <point x="441" y="468" type="line" smooth="yes"/>
      <point x="332" y="439"/>
      <point x="252" y="336"/>
      <point x="252" y="288" type="qcurve" smooth="yes"/>
      <point x="252" y="211"/>
      <point x="392" y="128"/>
      <point x="523" y="128" type="qcurve" smooth="yes"/>
      <point x="657" y="128"/>
      <point x="805" y="241"/>
      <point x="812" y="307" type="qcurve" smooth="yes"/>
      <point x="813" y="326" type="line"/>
      <point x="990" y="326" type="line"/>
      <point x="989" y="313" type="line" smooth="yes"/>
      <point x="976" y="143"/>
      <point x="721" y="-30"/>
      <point x="523" y="-30" type="qcurve" smooth="yes"/>
      <point x="309" y="-30"/>
      <point x="78" y="128"/>
    </contour>
    <contour>
      <point x="-10" y="582" type="line"/>
      <point x="-10" y="727" type="line"/>
      <point x="1033" y="727" type="line"/>
      <point x="1033" y="582" type="line"/>
    </contour>
    <contour>
      <point x="-10" y="346" type="line"/>
      <point x="-10" y="491" type="line"/>
      <point x="1033" y="491" type="line"/>
      <point x="1033" y="346" type="line"/>
    </contour>
  </outline>
</glyph>
<glyph name="tenge" format="2">
  <advance width="1024"/>
  <unicode hex="20B8"/>
  <outline>
    <contour>
      <point x="416" y="0" type="line"/>
      <point x="416" y="253" type="line"/>
      <point x="608" y="253" type="line"/>
      <point x="608" y="0" type="line"/>
    </contour>
    <contour>
      <point x="24" y="177" type="line"/>
      <point x="24" y="328" type="line"/>
      <point x="1000" y="328" type="line"/>
      <point x="1000" y="177" type="line"/>
    </contour>
    <contour>
      <point x="24" y="378" type="line"/>
      <point x="24" y="530" type="line"/>
      <point x="1000" y="530" type="line"/>
      <point x="1000" y="378" type="line"/>
    </contour>
  </outline>
</glyph>
<glyph name="manat" format="2">
  <advance width="1024"/>
  <unicode hex="20BC"/>
  <outline>
    <contour>
      <point x="959" y="263" type="qcurve" smooth="yes"/>
      <point x="959" y="0" type="line"/>
      <point x="777" y="0" type="line"/>
      <point x="777" y="263" type="line" smooth="yes"/>
      <point x="777" y="320"/>
      <point x="640" y="382"/>
      <point x="512" y="382" type="qcurve" smooth="yes"/>
      <point x="384" y="382"/>
      <point x="247" y="320"/>
      <point x="247" y="263" type="qcurve" smooth="yes"/>
      <point x="247" y="0" type="line"/>
      <point x="65" y="0" type="line"/>
      <point x="65" y="263" type="line" smooth="yes"/>
      <point x="65" y="396"/>
      <point x="297" y="540"/>
      <point x="512" y="540" type="qcurve" smooth="yes"/>
      <point x="727" y="540"/>
      <point x="959" y="396"/>
    </contour>
    <contour>
      <point x="592" y="0" type="line"/>
      <point x="432" y="0" type="line"/>
      <point x="432" y="631" type="line"/>
      <point x="592" y="631" type="line"/>
    </contour>
  </outline>
</glyph>
<glyph name="ruble" format="2">
  <advance width="1024"/>
  <unicode hex="20BD"/>
  <outline>
    <contour>
      <point x="566" y="411" type="qcurve" smooth="yes"/>
      <point x="30" y="411" type="line"/>
      <point x="30" y="568" type="line"/>
      <point x="566" y="568" type="line" smooth="yes"/>
      <point x="729" y="568"/>
      <point x="842" y="650"/>
      <point x="842" y="727" type="qcurve" smooth="yes"/>
      <point x="842" y="804"/>
      <point x="719" y="885"/>
      <point x="566" y="885" type="qcurve" smooth="yes"/>
      <point x="367" y="885" type="line"/>
      <point x="367" y="0" type="line"/>
      <point x="188" y="0" type="line"/>
      <point x="188" y="1052" type="line"/>
      <point x="566" y="1052" type="line" smooth="yes"/>
      <point x="812" y="1052"/>
      <point x="1034" y="887"/>
      <point x="1034" y="728" type="qcurve" smooth="yes"/>
      <point x="1034" y="569"/>
      <point x="810" y="411"/>
    </contour>
    <contour>
      <point x="754" y="314" type="line"/>
      <point x="754" y="156" type="line"/>
      <point x="30" y="156" type="line"/>
      <point x="30" y="314" type="line"/>
    </contour>
  </outline>
</glyph>
<glyph name="numero" format="2">
  <advance width="2331"/>
  <unicode hex="2116"/>
  <outline>
    <contour>
      <point x="170" y="0" type="line"/>
      <point x="170" y="1052" type="line"/>
      <point x="365" y="1052" type="line"/>
      <point x="967" y="316" type="line" smooth="yes"/>
      <point x="989" y="289"/>
      <point x="1021" y="226"/>
      <point x="1033" y="201" type="qcurve"/>
      <point x="1043" y="201" type="line"/>
      <point x="1039" y="231"/>
      <point x="1037" y="306"/>
      <point x="1037" y="336" type="qcurve" smooth="yes"/>
      <point x="1037" y="1052" type="line"/>
      <point x="1214" y="1052" type="line"/>
      <point x="1214" y="0" type="line"/>
      <point x="1017" y="0" type="line"/>
      <point x="407" y="724" type="line" smooth="yes"/>
      <point x="384" y="751"/>
      <point x="362" y="814"/>
      <point x="355" y="841" type="qcurve"/>
      <point x="345" y="841" type="line"/>
      <point x="349" y="811"/>
      <point x="350" y="736"/>
      <point x="350" y="706" type="qcurve" smooth="yes"/>
      <point x="350" y="0" type="line"/>
    </contour>
    <contour>
      <point x="1353" y="688" type="qcurve" smooth="yes"/>
      <point x="1353" y="715" type="line" smooth="yes"/>
      <point x="1353" y="886"/>
      <point x="1579" y="1069"/>
      <point x="1789" y="1069" type="qcurve" smooth="yes"/>
      <point x="2000" y="1069"/>
      <point x="2226" y="886"/>
      <point x="2226" y="715" type="qcurve" smooth="yes"/>
      <point x="2226" y="688" type="line" smooth="yes"/>
      <point x="2226" y="518"/>
      <point x="2000" y="335"/>
      <point x="1789" y="335" type="qcurve" smooth="yes"/>
      <point x="1579" y="335"/>
      <point x="1353" y="518"/>
    </contour>
    <contour>
      <point x="1541" y="712" type="qcurve" smooth="yes"/>
      <point x="1541" y="687" type="line" smooth="yes"/>
      <point x="1541" y="590"/>
      <point x="1670" y="485"/>
      <point x="1789" y="485" type="qcurve" smooth="yes"/>
      <point x="1909" y="485"/>
      <point x="2038" y="590"/>
      <point x="2038" y="687" type="qcurve" smooth="yes"/>
      <point x="2038" y="712" type="line" smooth="yes"/>
      <point x="2038" y="809"/>
      <point x="1909" y="914"/>
      <point x="1789" y="914" type="qcurve" smooth="yes"/>
      <point x="1670" y="914"/>
      <point x="1541" y="809"/>
    </contour>
    <contour>
      <point x="1393" y="42" type="line"/>
      <point x="1393" y="214" type="line"/>
      <point x="2186" y="214" type="line"/>
      <point x="2186" y="42" type="line"/>
    </contour>
  </outline>
</glyph>
<glyph name="cent.rvrn" format="2">
  <advance width="1024"/>
  <outline>
    <contour>
      <point x="547" y="145" type="qcurve" smooth="yes"/>
      <point x="666" y="145"/>
      <point x="798" y="171"/>
      <point x="802" y="196" type="qcurve"/>
      <point x="978" y="196" type="line"/>
      <point x="965" y="97"/>
      <point x="742" y="-10"/>
      <point x="547" y="-10" type="qcurve" smooth="yes"/>
      <point x="315" y="-10"/>
      <point x="65" y="120"/>
      <point x="65" y="240" type="qcurve" smooth="yes"/>
      <point x="65" y="260" type="line" smooth="yes"/>
      <point x="65" y="385"/>
      <point x="315" y="520"/>
      <point x="547" y="520" type="qcurve" smooth="yes"/>
      <point x="746" y="520"/>
      <point x="969" y="407"/>
      <point x="978" y="301" type="qcurve"/>
      <point x="802" y="301" type="line"/>
      <point x="797" y="330"/>
      <point x="665" y="362"/>
      <point x="547" y="362" type="qcurve" smooth="yes"/>
      <point x="404" y="362"/>
      <point x="251" y="309"/>
      <point x="251" y="260" type="qcurve" smooth="yes"/>
      <point x="251" y="240" type="line" smooth="yes"/>
      <point x="251" y="194"/>
      <point x="404" y="145"/>
    </contour>
    <contour>
      <point x="469" y="-110" type="line"/>
      <point x="469" y="40" type="line"/>
      <point x="474" y="54" type="line"/>
      <point x="474" y="65" type="line"/>
      <point x="614" y="65" type="line"/>
      <point x="614" y="50" type="line"/>
      <point x="619" y="40" type="line"/>
      <point x="619" y="-110" type="line"/>
    </contour>
    <contour>
      <point x="474" y="445" type="line"/>
      <point x="474" y="453" type="line"/>
      <point x="469" y="463" type="line"/>
      <point x="469" y="629" type="line"/>
      <point x="619" y="629" type="line"/>
      <point x="619" y="463" type="line"/>
      <point x="614" y="450" type="line"/>
      <point x="614" y="445" type="line"/>
    </contour>
  </outline>
</glyph>
<glyph name="dollar.rvrn" format="2">
  <advance width="1024"/>
  <outline>
    <contour>
      <point x="21" y="170" type="qcurve" smooth="yes"/>
      <point x="21" y="178" type="line"/>
      <point x="198" y="178" type="line"/>
      <point x="198" y="170" type="line" smooth="yes"/>
      <point x="198" y="150"/>
      <point x="346" y="132"/>
      <point x="511" y="132" type="qcurve" smooth="yes"/>
      <point x="672" y="132"/>
      <point x="816" y="145"/>
      <point x="816" y="160" type="qcurve" smooth="yes"/>
      <point x="816" y="174"/>
      <point x="643" y="191"/>
      <point x="451" y="210" type="qcurve" smooth="yes"/>
      <point x="221" y="232"/>
      <point x="49" y="301"/>
      <point x="49" y="372" type="qcurve" smooth="yes"/>
      <point x="49" y="455"/>
      <point x="263" y="530"/>
      <point x="501" y="530" type="qcurve" smooth="yes"/>
      <point x="746" y="530"/>
      <point x="965" y="450"/>
      <point x="965" y="360" type="qcurve" smooth="yes"/>
      <point x="965" y="353" type="line"/>
      <point x="788" y="353" type="line"/>
      <point x="788" y="360" type="line" smooth="yes"/>
      <point x="788" y="377"/>
      <point x="652" y="393"/>
      <point x="501" y="393" type="qcurve" smooth="yes"/>
      <point x="355" y="393"/>
      <point x="225" y="384"/>
      <point x="225" y="374" type="qcurve" smooth="yes"/>
      <point x="225" y="368"/>
      <point x="392" y="353"/>
      <point x="579" y="335" type="qcurve" smooth="yes"/>
      <point x="815" y="315"/>
      <point x="991" y="244"/>
      <point x="991" y="169" type="qcurve" smooth="yes"/>
      <point x="991" y="78"/>
      <point x="764" y="-3"/>
      <point x="511" y="-3" type="qcurve" smooth="yes"/>
      <point x="253" y="-3"/>
      <point x="21" y="79"/>
    </contour>
    <contour>
      <point x="436" y="-120" type="line"/>
      <point x="436" y="69" type="line"/>
      <point x="572" y="69" type="line"/>
      <point x="572" y="64" type="line"/>
      <point x="586" y="59" type="line"/>
      <point x="586" y="-120" type="line"/>
    </contour>
    <contour>
      <point x="450" y="467" type="line"/>
      <point x="450" y="472" type="line"/>
      <point x="436" y="478" type="line"/>
      <point x="436" y="639" type="line"/>
      <point x="586" y="639" type="line"/>
      <point x="586" y="467" type="line"/>
    </contour>
  </outline>
</glyph>
<glyph name="four.prop" format="2">
  <advance width="1011"/>
  <outline>
    <contour>
      <point x="623" y="0" type="line"/>
      <point x="623" y="170" type="line"/>
      <point x="623" y="196" type="line"/>
      <point x="623" y="395" type="line"/>
      <point x="615" y="395" type="line"/>
      <point x="316" y="250" type="line"/>
      <point x="674" y="250" type="line"/>
      <point x="751" y="250" type="line"/>
      <point x="1007" y="250" type="line"/>
      <point x="1007" y="113" type="line"/>
      <point x="-13" y="113" type="line"/>
      <point x="-13" y="235" type="line"/>
      <point x="631" y="530" type="line"/>
      <point x="803" y="530" type="line"/>
      <point x="803" y="0" type="line"/>
    </contour>
  </outline>
</glyph>
<glyph name="nine.prop" format="2">
  <advance width="1136"/>
  <outline>
    <contour>
      <point x="60" y="730" type="qcurve" smooth="yes"/>
      <point x="60" y="913"/>
      <point x="311" y="1110"/>
      <point x="544" y="1110" type="qcurve" smooth="yes"/>
      <point x="791" y="1110"/>
      <point x="1056" y="854"/>
      <point x="1056" y="616" type="qcurve" smooth="yes"/>
      <point x="1056" y="586" type="line" smooth="yes"/>
      <point x="1056" y="308"/>
      <point x="646" y="-11"/>
      <point x="264" y="-30" type="qcurve" smooth="yes"/>
      <point x="244" y="-30" type="line"/>
      <point x="244" y="128" type="line"/>
      <point x="264" y="128" type="line" smooth="yes"/>
      <point x="555" y="128"/>
      <point x="868" y="360"/>
      <point x="868" y="576" type="qcurve" smooth="yes"/>
      <point x="868" y="626" type="line" smooth="yes"/>
      <point x="868" y="783"/>
      <point x="700" y="952"/>
      <point x="544" y="952" type="qcurve" smooth="yes"/>
      <point x="402" y="952"/>
      <point x="250" y="837"/>
      <point x="250" y="730" type="qcurve" smooth="yes"/>
      <point x="250" y="630"/>
      <point x="402" y="522"/>
      <point x="544" y="522" type="qcurve" smooth="yes"/>
      <point x="703" y="522"/>
      <point x="874" y="648"/>
      <point x="874" y="766" type="qcurve"/>
      <point x="944" y="766" type="line"/>
      <point x="944" y="572"/>
      <point x="716" y="364"/>
      <point x="504" y="364" type="qcurve" smooth="yes"/>
      <point x="290" y="364"/>
      <point x="60" y="554"/>
    </contour>
  </outline>
</glyph>
<glyph name="one.prop" format="2">
  <advance width="736"/>
  <outline>
    <contour>
      <point x="393" y="0" type="line"/>
      <point x="393" y="889" type="line"/>
      <point x="25" y="734" type="line"/>
      <point x="25" y="920" type="line"/>
      <point x="555" y="1120" type="line"/>
      <point x="585" y="1120" type="line"/>
      <point x="585" y="0" type="line"/>
    </contour>
  </outline>
</glyph>
<glyph name="seven.prop" format="2">
  <advance width="882"/>
  <outline>
    <contour>
      <point x="183" y="0" type="line"/>
      <point x="568" y="369" type="line"/>
      <point x="0" y="369" type="line"/>
      <point x="0" y="530" type="line"/>
      <point x="870" y="530" type="line"/>
      <point x="870" y="426" type="line"/>
      <point x="412" y="0" type="line"/>
    </contour>
  </outline>
</glyph>
<glyph name="six.prop" format="2">
  <advance width="1136"/>
  <outline>
    <contour>
      <point x="80" y="464" type="qcurve" smooth="yes"/>
      <point x="80" y="494" type="line" smooth="yes"/>
      <point x="80" y="772"/>
      <point x="490" y="1091"/>
      <point x="872" y="1110" type="qcurve" smooth="yes"/>
      <point x="892" y="1110" type="line"/>
      <point x="892" y="952" type="line"/>
      <point x="872" y="952" type="line" smooth="yes"/>
      <point x="581" y="952"/>
      <point x="268" y="720"/>
      <point x="268" y="504" type="qcurve" smooth="yes"/>
      <point x="268" y="454" type="line" smooth="yes"/>
      <point x="268" y="297"/>
      <point x="436" y="128"/>
      <point x="592" y="128" type="qcurve" smooth="yes"/>
      <point x="734" y="128"/>
      <point x="886" y="243"/>
      <point x="886" y="350" type="qcurve" smooth="yes"/>
      <point x="886" y="450"/>
      <point x="734" y="558"/>
      <point x="592" y="558" type="qcurve" smooth="yes"/>
      <point x="433" y="558"/>
      <point x="262" y="432"/>
      <point x="262" y="314" type="qcurve"/>
      <point x="192" y="314" type="line"/>
      <point x="192" y="508"/>
      <point x="420" y="716"/>
      <point x="632" y="716" type="qcurve" smooth="yes"/>
      <point x="846" y="716"/>
      <point x="1076" y="526"/>
      <point x="1076" y="350" type="qcurve" smooth="yes"/>
      <point x="1076" y="167"/>
      <point x="825" y="-30"/>
      <point x="592" y="-30" type="qcurve" smooth="yes"/>
      <point x="345" y="-30"/>
      <point x="80" y="226"/>
    </contour>
  </outline>
</glyph>
<glyph name="three.prop" format="2">
  <advance width="1051"/>
  <outline>
    <contour>
      <point x="17" y="185" type="qcurve" smooth="yes"/>
      <point x="17" y="190" type="line"/>
      <point x="207" y="190" type="line"/>
      <point x="207" y="185" type="line" smooth="yes"/>
      <point x="207" y="158"/>
      <point x="341" y="128"/>
      <point x="485" y="128" type="qcurve" smooth="yes"/>
      <point x="628" y="128"/>
      <point x="781" y="150"/>
      <point x="781" y="170" type="qcurve" smooth="yes"/>
      <point x="781" y="183"/>
      <point x="607" y="199"/>
      <point x="446" y="200" type="qcurve" smooth="yes"/>
      <point x="329" y="200" type="line"/>
      <point x="329" y="322" type="line"/>
      <point x="436" y="322" type="line" smooth="yes"/>
      <point x="578" y="322"/>
      <point x="730" y="341"/>
      <point x="730" y="358" type="qcurve" smooth="yes"/>
      <point x="730" y="370"/>
      <point x="603" y="382"/>
      <point x="485" y="382" type="qcurve" smooth="yes"/>
      <point x="361" y="382"/>
      <point x="227" y="363"/>
      <point x="227" y="345" type="qcurve" smooth="yes"/>
      <point x="227" y="340" type="line"/>
      <point x="38" y="340" type="line"/>
      <point x="38" y="345" type="line" smooth="yes"/>
      <point x="38" y="439"/>
      <point x="269" y="540"/>
      <point x="485" y="540" type="qcurve" smooth="yes"/>
      <point x="697" y="540"/>
      <point x="926" y="469"/>
      <point x="926" y="403" type="qcurve" smooth="yes"/>
      <point x="926" y="353"/>
      <point x="828" y="290"/>
      <point x="736" y="281" type="qcurve"/>
      <point x="736" y="279" type="line"/>
      <point x="854" y="273"/>
      <point x="979" y="206"/>
      <point x="979" y="150" type="qcurve" smooth="yes"/>
      <point x="979" y="63"/>
      <point x="723" y="-30"/>
      <point x="485" y="-30" type="qcurve" smooth="yes"/>
      <point x="250" y="-30"/>
      <point x="17" y="81"/>
    </contour>
  </outline>
</glyph>
<glyph name="two.prop" format="2">
  <advance width="988"/>
  <outline>
    <contour>
      <point x="26" y="0" type="line"/>
      <point x="26" y="140" type="line"/>
      <point x="546" y="460" type="line" smooth="yes"/>
      <point x="673" y="538"/>
      <point x="756" y="651"/>
      <point x="756" y="750" type="qcurve" smooth="yes"/>
      <point x="756" y="850"/>
      <point x="621" y="952"/>
      <point x="501" y="952" type="qcurve" smooth="yes"/>
      <point x="381" y="952"/>
      <point x="216" y="861"/>
      <point x="216" y="721" type="qcurve" smooth="yes"/>
      <point x="216" y="711" type="line"/>
      <point x="26" y="711" type="line"/>
      <point x="26" y="721" type="line" smooth="yes"/>
      <point x="26" y="921"/>
      <point x="299" y="1110"/>
      <point x="501" y="1110" type="qcurve" smooth="yes"/>
      <point x="701" y="1110"/>
      <point x="946" y="920"/>
      <point x="946" y="760" type="qcurve" smooth="yes"/>
      <point x="946" y="619"/>
      <point x="816" y="436"/>
      <point x="671" y="355" type="qcurve" smooth="yes"/>
      <point x="334" y="166" type="line"/>
      <point x="986" y="166" type="line"/>
      <point x="986" y="0" type="line"/>
    </contour>
  </outline>
</glyph>
<glyph name="uni20B2.rvrn" format="2">
  <advance width="1024"/>
  <outline>
    <contour>
      <point x="479" y="-190" type="line"/>
      <point x="479" y="57" type="line"/>
      <point x="497" y="71" type="line"/>
      <point x="497" y="80" type="line"/>
      <point x="627" y="80" type="line"/>
      <point x="627" y="70" type="line"/>
      <point x="649" y="60" type="line"/>
      <point x="649" y="-190" type="line"/>
    </contour>
    <contour>
      <point x="497" y="1008" type="line"/>
      <point x="497" y="1017" type="line"/>
      <point x="482" y="1027" type="line"/>
      <point x="482" y="1257" type="line"/>
      <point x="642" y="1257" type="line"/>
      <point x="642" y="1027" type="line"/>
      <point x="627" y="1014" type="line"/>
      <point x="627" y="1008" type="line"/>
    </contour>
    <contour>
      <point x="995" y="581" type="line"/>
      <point x="995" y="342" type="line" smooth="yes"/>
      <point x="995" y="191"/>
      <point x="756" y="-5"/>
      <point x="571" y="-5" type="qcurve" smooth="yes"/>
      <point x="363" y="-5"/>
      <point x="94" y="224"/>
      <point x="94" y="402" type="qcurve" smooth="yes"/>
      <point x="94" y="669" type="line" smooth="yes"/>
      <point x="94" y="861"/>
      <point x="357" y="1110"/>
      <point x="561" y="1110" type="qcurve" smooth="yes"/>
      <point x="750" y="1110"/>
      <point x="993" y="928"/>
      <point x="993" y="787" type="qcurve" smooth="yes"/>
      <point x="993" y="745" type="line"/>
      <point x="803" y="743" type="line"/>
      <point x="803" y="783" type="line" smooth="yes"/>
      <point x="803" y="857"/>
      <point x="664" y="953"/>
      <point x="557" y="953" type="qcurve" smooth="yes"/>
      <point x="440" y="953"/>
      <point x="288" y="794"/>
      <point x="288" y="671" type="qcurve" smooth="yes"/>
      <point x="288" y="404" type="line" smooth="yes"/>
      <point x="288" y="294"/>
      <point x="455" y="153"/>
      <point x="585" y="153" type="qcurve" smooth="yes"/>
      <point x="689" y="153"/>
      <point x="823" y="249"/>
      <point x="823" y="323" type="qcurve" smooth="yes"/>
      <point x="823" y="425" type="line"/>
      <point x="686" y="425" type="line"/>
      <point x="686" y="581" type="line"/>
    </contour>
  </outline>
</glyph>
<glyph name="zero.prop" format="2">
  <advance width="1156"/>
  <outline>
    <contour>
      <point x="110" y="460" type="qcurve" smooth="yes"/>
      <point x="110" y="620" type="line" smooth="yes"/>
      <point x="110" y="840"/>
      <point x="358" y="1110"/>
      <point x="578" y="1110" type="qcurve" smooth="yes"/>
      <point x="796" y="1110"/>
      <point x="1046" y="840"/>
      <point x="1046" y="620" type="qcurve" smooth="yes"/>
      <point x="1046" y="460" type="line" smooth="yes"/>
      <point x="1046" y="240"/>
      <point x="796" y="-30"/>
      <point x="578" y="-30" type="qcurve" smooth="yes"/>
      <point x="358" y="-30"/>
      <point x="110" y="240"/>
    </contour>
    <contour>
      <point x="304" y="450" type="line" smooth="yes"/>
      <point x="304" y="310"/>
      <point x="438" y="128"/>
      <point x="578" y="128" type="qcurve" smooth="yes"/>
      <point x="718" y="128"/>
      <point x="852" y="310"/>
      <point x="852" y="450" type="qcurve" smooth="yes"/>
      <point x="852" y="630" type="line" smooth="yes"/>
      <point x="852" y="770"/>
      <point x="718" y="952"/>
      <point x="578" y="952" type="qcurve" smooth="yes"/>
      <point x="438" y="952"/>
      <point x="304" y="770"/>
      <point x="304" y="630" type="qcurve" smooth="yes"/>
    </contour>
  </outline>
</glyph>
